<svg xmlns="http://www.w3.org/2000/svg" width="32.666" height="32.666" viewBox="0 0 32.666 32.666"><defs><style>.a{fill:#fff;}</style></defs><path class="a" d="M28.189,16.5H26.523a9.868,9.868,0,0,0-9.856-9.858V4.982A11.532,11.532,0,0,1,28.189,16.5ZM16.666,7.856V9.52A6.987,6.987,0,0,1,23.646,16.5h1.666A8.654,8.654,0,0,0,16.666,7.856ZM16.333,0a16.333,16.333,0,1,0,0,32.666,1.008,1.008,0,0,0,0-2.016A14.318,14.318,0,1,1,30.65,16.334a9.281,9.281,0,0,1-4.269,7.954,6.172,6.172,0,0,1-2.959.761,4.733,4.733,0,0,0,1.591-1.529,2.148,2.148,0,0,0,.238-.359,16.244,16.244,0,0,0,.555-2.518c.243-1.064-4.658-3.143-5.084-1.814a12.722,12.722,0,0,1-.7,2.458c-.275.366-.953.192-1.377-.168-1.117-.952-2.364-2.351-3.458-3.457h0l-.092-.092c-.031-.029-.062-.062-.093-.092v0c-1.106-1.1-2.506-2.34-3.457-3.459-.36-.424-.534-1.1-.168-1.377a12.722,12.722,0,0,1,2.458-.7c1.326-.424-.75-5.328-1.816-5.084a16.151,16.151,0,0,0-2.516.553,2.364,2.364,0,0,0-.359.24c-2.8,1.774-3.16,6.082-.428,9.292,1.041,1.228,2.127,2.416,3.245,3.576l-.006,0c.031.031.063.06.1.09s.059.062.088.095l.006-.006a30.74,30.74,0,0,0,4.769,4.255c4.7,3.141,8.312,2.264,10.438,1.1,3.67-2.021,5.312-6.338,5.312-9.719A16.352,16.352,0,0,0,16.333,0Z"/></svg>