<svg xmlns="http://www.w3.org/2000/svg" width="25.313" height="36" viewBox="0 0 25.313 36"><defs><style>.a{fill:#fff;}</style></defs><g transform="translate(-76)"><g transform="translate(76)"><g transform="translate(0)"><path class="a" d="M88.656,0A12.659,12.659,0,0,0,77.889,19.311L87.936,35.5a1.055,1.055,0,0,0,.9.5h.008a1.054,1.054,0,0,0,.9-.513L99.527,19.14A12.659,12.659,0,0,0,88.656,0Zm9.061,18.058-8.9,14.862L79.682,18.2a10.554,10.554,0,1,1,18.035-.143Z" transform="translate(-76)"/></g></g><g transform="translate(82.328 6.328)"><g transform="translate(0)"><path class="a" d="M172.328,90a6.328,6.328,0,1,0,6.328,6.328A6.335,6.335,0,0,0,172.328,90Zm0,10.561a4.233,4.233,0,1,1,4.226-4.233A4.236,4.236,0,0,1,172.328,100.561Z" transform="translate(-166 -90)"/></g></g></g></svg>